<?xml version="1.0" encoding="UTF-8"?>
<svg id="elements" xmlns="http://www.w3.org/2000/svg" viewBox="0 0 447.04 393.04">
  <defs>
    <style>
      .cls-1 {
        fill: #020202;
        stroke-width: 0px;
      }
    </style>
  </defs>
  <path class="cls-1" d="m358.28,249.42l8.29-30.63-19.14-5.18c1.55-11.34,1.55-22.62.06-33.58l19.18-5.09-8.14-30.67-19.27,5.11c-4.25-10.38-9.87-20.16-16.71-29.05l14.15-14.08-22.38-22.49-14.13,14.06c-8.71-6.78-18.44-12.44-29-16.8l5.21-19.27-30.63-8.29-5.2,19.23c-11.33-1.59-22.6-1.62-33.55-.19l-5.08-19.15-30.67,8.14,5.07,19.11c-10.44,4.22-20.26,9.84-29.2,16.67l-13.88-13.95-22.49,22.38,13.78,13.85c-6.85,8.75-12.57,18.53-16.97,29.15l-18.83-5.09-8.29,30.63,18.75,5.07c-1.62,11.42-1.65,22.78-.2,33.82l-18.66,4.95,8.14,30.67,18.64-4.94c4.26,10.5,9.93,20.39,16.84,29.38l-13.65,13.58,22.38,22.49,13.62-13.55c8.8,6.85,18.64,12.57,29.33,16.95l-5.04,18.61,30.63,8.29,5.05-18.65c11.43,1.58,22.8,1.58,33.84.08l4.96,18.68,30.67-8.14-4.99-18.81c10.45-4.29,20.29-9.96,29.23-16.87l13.78,13.85,22.49-22.38-13.83-13.89c6.78-8.77,12.45-18.55,16.78-29.17l19.06,5.16Zm-120.58-80.15l17.2-63.59c28.56,9.89,49.84,32.21,59.35,59.15l-63.79,16.93c-2.89-5.23-7.28-9.62-12.76-12.5Zm2.6,32.13c-2.54,9.38-12.24,14.95-21.62,12.41-9.38-2.54-14.95-12.24-12.41-21.62s12.24-14.95,21.62-12.41c9.38,2.54,14.95,12.24,12.41,21.62Zm.35-99.47l-17.26,63.81c-5.94-.02-11.65,1.67-16.55,4.73l-46.5-46.73c21.53-18.5,50.86-27.22,80.31-21.81Zm-110.48,69.67c3.86-14.25,10.74-26.89,19.76-37.42l46.61,46.84c-1.39,2.35-2.51,4.9-3.26,7.66s-1.09,5.72-1.05,8.54l-63.82,16.93c-2.53-13.73-2.12-28.21,1.76-42.55Zm65.77,39.89c2.69,5,6.72,9.25,11.78,12.18l-17.27,63.81c-28.07-10.14-48.95-32.36-58.26-59.07l63.75-16.92Zm8.72,79.93l17.2-63.59c6.08.28,12-1.24,17.08-4.21l46.58,46.81c-21.78,18.35-51.31,26.82-80.86,20.99Zm91.39-31.31l-46.48-46.71c1.62-2.56,2.9-5.41,3.73-8.49s1.13-5.98,1.06-8.93l63.75-16.91c2.61,13.83,2.22,28.44-1.7,42.91s-11.04,27.45-20.36,38.12Z"/>
</svg>