<?xml version="1.0" encoding="UTF-8"?>
<svg id="elements" xmlns="http://www.w3.org/2000/svg" viewBox="0 0 447.04 393.04">
  <defs>
    <style>
      .cls-1 {
        fill: #232323;
        stroke-width: 0px;
      }
    </style>
  </defs>
  <path class="cls-1" d="m367.42,212.54v-32.05h-22.68c-1.5-10.7-4.35-20.96-8.44-30.58l19.86-11.46-16.03-27.76-20.17,11.64c-6.49-8.26-14.01-15.68-22.39-22.02l11.78-20.4-27.75-16.03-11.91,20.64c-9.51-3.84-19.61-6.5-30.13-7.83v-24.08h-32.05v24.24c-10.45,1.43-20.47,4.17-29.89,8.07l-12.15-21.05-27.76,16.03,12.18,21.1c-8.2,6.32-15.56,13.66-21.91,21.84l-21.05-12.15-16.03,27.76,20.89,12.06c-3.95,9.45-6.73,19.51-8.19,29.98h-23.96v32.05h23.72c1.31,10.6,3.97,20.77,7.82,30.34l-20.27,11.7,16.02,27.76,20.01-11.55c6.38,8.45,13.85,16.03,22.18,22.56l-11.41,19.77,27.76,16.02,11.25-19.48c9.69,4.1,20.02,6.96,30.8,8.43v22.32h32.05v-22.15c10.86-1.37,21.27-4.15,31.04-8.18l11.01,19.07,27.76-16.02-11.02-19.08c8.52-6.55,16.14-14.2,22.67-22.74l19.13,11.04,16.03-27.76-19.23-11.1c3.98-9.75,6.72-20.13,8.06-30.95h22.43Zm-143.25,27.88c-23.68,0-42.94-19.26-42.94-42.94s19.26-42.94,42.94-42.94,42.94,19.26,42.94,42.94-19.26,42.94-42.94,42.94Z"/>
</svg>