<?xml version="1.0" encoding="UTF-8"?>
<svg id="Layer_1" data-name="Layer 1" xmlns="http://www.w3.org/2000/svg" viewBox="0 0 196.05 73.45">
  <defs>
    <style>
      .cls-1 {
        fill: #234876;
      }

      .cls-1, .cls-2, .cls-3 {
        stroke-width: 0px;
      }

      .cls-2 {
        fill: #333;
      }

      .cls-3 {
        fill: orange;
      }
    </style>
  </defs>
  <path class="cls-3" d="m415.54-134.25l41.64,582.94s64.77,148.05-286.84,101.78c-17.96-2.36-35.62-.46-52.97,5.27,17.22,9.99,34.87,22.07,52.97,36.37,573.69,453.4,245.2-726.36,245.2-726.36Z"/>
  <path class="cls-1" d="m387.78-152.75l41.64,582.94s64.77,148.05-286.84,101.78c-17.96-2.36-35.62-.46-52.97,5.27,17.22,9.99,34.87,22.07,52.97,36.37,573.69,453.4,245.2-726.36,245.2-726.36Z"/>
  <g>
    <g>
      <path class="cls-2" d="m34.79,23.31c.4.86.61,1.79.61,2.78,0,1.51-.48,2.86-1.39,3.98,4.25,2.02,7.19,6.36,7.19,11.37,0,6.94-5.65,12.59-12.59,12.59s-12.59-5.65-12.59-12.59c0-5.02,2.95-9.36,7.21-11.38-.86-1.11-1.31-2.47-1.31-3.97,0-1,.2-1.94.59-2.81-7.58,2.55-13.05,9.71-13.05,18.15,0,10.58,8.58,19.15,19.15,19.15s19.15-8.58,19.15-19.15c0-8.42-5.43-15.56-12.98-18.13Z"/>
      <path class="cls-3" d="m24.73,26.1c0-1.07.36-1.98,1.08-2.74.72-.76,1.63-1.15,2.74-1.15s2.06.38,2.85,1.15c.79.76,1.18,1.68,1.18,2.74s-.39,1.95-1.18,2.64c-.79.69-1.74,1.04-2.85,1.04s-2.03-.35-2.74-1.04c-.72-.69-1.08-1.57-1.08-2.64Z"/>
      <rect class="cls-2" x="26.22" y="32.63" width="4.88" height="21.61"/>
    </g>
    <g>
      <g>
        <path class="cls-2" d="m62.81,39.67h-5.72v-1.48h1.9v-11.53h-1.9v-1.48h5.72v1.48h-1.9v11.53h1.9v1.48Z"/>
        <path class="cls-2" d="m79.78,39.67h-1.93v-12.48l-4.03,8.49h-1.15l-4-8.49v12.48h-1.8v-14.48h2.63l3.86,8.06,3.73-8.06h2.67v14.48Z"/>
        <path class="cls-2" d="m95.89,39.67h-2.05l-1.42-4.04h-6.26l-1.42,4.04h-1.95l5.27-14.48h2.57l5.27,14.48Zm-4.07-5.69l-2.54-7.11-2.55,7.11h5.09Z"/>
        <path class="cls-2" d="m110.96,38.6c-.79.36-1.66.68-2.59.95-.94.27-1.84.4-2.72.4-1.13,0-2.16-.16-3.1-.47-.94-.31-1.74-.78-2.4-1.4-.67-.63-1.18-1.42-1.55-2.36-.36-.94-.54-2.05-.54-3.31,0-2.31.68-4.14,2.03-5.48,1.35-1.34,3.21-2.01,5.57-2.01.82,0,1.66.1,2.52.3.86.2,1.78.53,2.78,1.01v2.29h-.18c-.2-.16-.49-.36-.88-.61-.38-.25-.76-.46-1.13-.63-.45-.2-.95-.37-1.52-.5-.57-.13-1.21-.2-1.93-.2-1.62,0-2.9.52-3.85,1.56-.94,1.04-1.41,2.45-1.41,4.23,0,1.87.49,3.33,1.48,4.37.99,1.04,2.33,1.56,4.03,1.56.62,0,1.24-.06,1.86-.18.62-.12,1.16-.28,1.63-.48v-3.55h-3.88v-1.69h5.79v6.21Z"/>
        <path class="cls-2" d="m120.23,39.67h-5.72v-1.48h1.9v-11.53h-1.9v-1.48h5.72v1.48h-1.9v11.53h1.9v1.48Z"/>
        <path class="cls-2" d="m135.35,39.67h-2.38l-6.87-12.95v12.95h-1.8v-14.48h2.99l6.26,11.83v-11.83h1.8v14.48Z"/>
        <path class="cls-2" d="m151.42,39.67h-2.05l-1.42-4.04h-6.26l-1.42,4.04h-1.95l5.27-14.48h2.57l5.27,14.48Zm-4.07-5.69l-2.54-7.11-2.55,7.11h5.09Z"/>
        <path class="cls-2" d="m166.4,39.67h-2.5l-4.84-5.76h-2.71v5.76h-1.93v-14.48h4.06c.88,0,1.6.06,2.19.17.58.11,1.11.32,1.58.61.53.33.94.75,1.23,1.25.29.5.44,1.14.44,1.91,0,1.04-.26,1.92-.79,2.62-.53.7-1.25,1.23-2.17,1.59l5.45,6.33Zm-4.5-10.41c0-.41-.07-.78-.22-1.1-.15-.32-.39-.59-.72-.81-.28-.19-.61-.32-.99-.39-.38-.07-.83-.11-1.35-.11h-2.27v5.47h1.95c.61,0,1.14-.05,1.6-.16.45-.11.84-.31,1.16-.6.29-.27.51-.59.65-.94.14-.35.21-.8.21-1.35Z"/>
        <path class="cls-2" d="m179.12,25.19l-5.1,8.13v6.35h-1.93v-6.15l-5.12-8.33h2.13l3.96,6.48,4-6.48h2.05Z"/>
      </g>
      <g>
        <path class="cls-2" d="m67.86,50.8c0,1.28-.54,2.33-1.63,3.13-1.09.8-2.57,1.2-4.43,1.2-1.08,0-2.02-.09-2.82-.28s-1.55-.43-2.25-.72v-3.13h.37c.69.55,1.47.98,2.33,1.28.86.3,1.69.45,2.48.45.2,0,.47-.02.81-.05.33-.04.6-.09.81-.18.26-.11.47-.24.63-.39.17-.16.25-.39.25-.7,0-.29-.12-.53-.36-.74-.24-.21-.6-.37-1.06-.48-.49-.12-1.01-.23-1.55-.33-.55-.1-1.06-.23-1.54-.39-1.1-.36-1.89-.84-2.37-1.45-.48-.61-.72-1.37-.72-2.27,0-1.21.54-2.2,1.63-2.97,1.09-.77,2.49-1.15,4.2-1.15.86,0,1.71.08,2.54.25s1.56.38,2.18.63v3h-.36c-.53-.42-1.17-.77-1.93-1.05-.76-.28-1.54-.42-2.33-.42-.28,0-.56.02-.84.06s-.54.11-.8.21c-.23.09-.42.22-.59.4-.16.18-.25.38-.25.61,0,.34.13.61.39.79.26.18.76.35,1.49.5.48.1.94.2,1.38.29.44.09.91.22,1.42.39,1,.33,1.73.77,2.21,1.34.48.56.71,1.29.71,2.19Z"/>
        <path class="cls-2" d="m83.55,48.38c0,2.08-.6,3.73-1.79,4.95-1.19,1.22-2.84,1.83-4.94,1.83s-3.74-.61-4.93-1.83c-1.19-1.22-1.79-2.87-1.79-4.95s.6-3.75,1.79-4.97c1.19-1.22,2.83-1.83,4.93-1.83s3.73.61,4.93,1.83c1.2,1.22,1.79,2.87,1.79,4.97Zm-4.46,3.3c.33-.4.57-.87.73-1.41.16-.54.24-1.17.24-1.9,0-.78-.09-1.45-.27-2-.18-.55-.42-.99-.71-1.33-.3-.35-.64-.6-1.03-.76-.39-.16-.79-.24-1.21-.24s-.83.08-1.2.23c-.38.15-.72.4-1.04.75-.29.33-.53.78-.71,1.35-.18.57-.28,1.24-.28,2s.09,1.44.27,1.98c.18.55.41.99.7,1.33.29.34.63.6,1.02.76.39.16.8.25,1.23.25s.84-.08,1.23-.25c.39-.17.73-.42,1.02-.77Z"/>
        <path class="cls-2" d="m96.24,54.9h-9.4v-13.04h3.36v10.51h6.04v2.52Z"/>
        <path class="cls-2" d="m110.39,50.18c0,1.61-.49,2.85-1.47,3.7-.98.86-2.42,1.29-4.33,1.29s-3.35-.43-4.33-1.29-1.47-2.09-1.47-3.69v-8.33h3.38v8.13c0,.9.19,1.58.57,2.02.38.44.99.67,1.85.67s1.45-.21,1.84-.64c.39-.43.58-1.11.58-2.05v-8.13h3.38v8.32Z"/>
        <path class="cls-2" d="m124.45,44.38h-4.07v10.51h-3.36v-10.51h-4.07v-2.52h11.5v2.52Z"/>
        <path class="cls-2" d="m134.24,54.9h-7.63v-2.31h2.14v-8.41h-2.14v-2.31h7.63v2.31h-2.14v8.41h2.14v2.31Z"/>
        <path class="cls-2" d="m150.37,48.38c0,2.08-.6,3.73-1.79,4.95-1.19,1.22-2.84,1.83-4.94,1.83s-3.74-.61-4.93-1.83c-1.19-1.22-1.79-2.87-1.79-4.95s.6-3.75,1.79-4.97c1.19-1.22,2.83-1.83,4.93-1.83s3.73.61,4.93,1.83c1.2,1.22,1.79,2.87,1.79,4.97Zm-4.46,3.3c.33-.4.57-.87.73-1.41.16-.54.24-1.17.24-1.9,0-.78-.09-1.45-.27-2-.18-.55-.42-.99-.71-1.33-.3-.35-.64-.6-1.03-.76-.39-.16-.79-.24-1.21-.24s-.83.08-1.2.23c-.38.15-.72.4-1.04.75-.29.33-.53.78-.71,1.35-.18.57-.28,1.24-.28,2s.09,1.44.27,1.98c.18.55.41.99.7,1.33.29.34.63.6,1.02.76.39.16.8.25,1.23.25s.84-.08,1.23-.25c.39-.17.73-.42,1.02-.77Z"/>
        <path class="cls-2" d="m165.51,54.9h-3.24l-5.53-8.95v8.95h-3.08v-13.04h4.02l4.75,7.47v-7.47h3.08v13.04Z"/>
        <path class="cls-2" d="m179.99,50.8c0,1.28-.54,2.33-1.63,3.13-1.09.8-2.57,1.2-4.43,1.2-1.08,0-2.02-.09-2.82-.28s-1.55-.43-2.25-.72v-3.13h.37c.69.55,1.47.98,2.33,1.28.86.3,1.69.45,2.48.45.2,0,.47-.02.81-.05s.6-.09.81-.18c.26-.11.47-.24.63-.39.17-.16.25-.39.25-.7,0-.29-.12-.53-.36-.74-.24-.21-.6-.37-1.06-.48-.49-.12-1.01-.23-1.55-.33-.55-.1-1.06-.23-1.54-.39-1.1-.36-1.89-.84-2.37-1.45-.48-.61-.72-1.37-.72-2.27,0-1.21.54-2.2,1.63-2.97,1.09-.77,2.49-1.15,4.2-1.15.86,0,1.71.08,2.54.25.84.17,1.56.38,2.18.63v3h-.36c-.53-.42-1.17-.77-1.93-1.05-.76-.28-1.54-.42-2.33-.42-.28,0-.56.02-.84.06s-.54.11-.8.21c-.23.09-.42.22-.59.4-.16.18-.24.38-.24.61,0,.34.13.61.39.79.26.18.76.35,1.49.5.48.1.94.2,1.38.29.44.09.92.22,1.42.39,1,.33,1.73.77,2.21,1.34s.71,1.29.71,2.19Z"/>
      </g>
    </g>
  </g>
</svg>