<?xml version="1.0" encoding="UTF-8"?>
<svg id="Layer_1" data-name="Layer 1" xmlns="http://www.w3.org/2000/svg" viewBox="0 0 144 144">
  <defs>
    <style>
      .cls-1 {
        opacity: .55;
      }

      .cls-2 {
        fill: #6376a5;
      }

      .cls-2, .cls-3, .cls-4 {
        stroke-width: 0px;
      }

      .cls-3 {
        fill: #234876;
      }

      .cls-4 {
        fill: orange;
      }
    </style>
  </defs>
  <g>
    <g>
      <path class="cls-4" d="m72.46,37.38c14.22.13,25.75,11.74,25.75,25.99s-11.53,25.86-25.75,26v-51.99Z"/>
      <path class="cls-2" d="m71.96,37.38v51.99c-14.22-.14-25.75-11.74-25.75-26s11.53-25.86,25.75-25.99Z"/>
    </g>
    <path class="cls-4" d="m101.42,88.71c-.13,0-.26-.05-.35-.15l-6.78-6.78c-.2-.2-.2-.51,0-.71s.51-.2.71,0l6.78,6.78c.2.2.2.51,0,.71-.1.1-.23.15-.35.15Z"/>
    <g class="cls-1">
      <path class="cls-3" d="m71.96,24.42h-.12c-21.28.2-38.59,17.68-38.59,38.95s17.31,38.75,38.59,38.95h.12s0-77.91,0-77.91Z"/>
    </g>
    <path class="cls-4" d="m95.43,46.83c-.13,0-.26-.05-.35-.15-.2-.2-.2-.51,0-.71l6.78-6.78c.2-.2.51-.2.71,0s.2.51,0,.71l-6.78,6.78c-.1.1-.23.15-.35.15Z"/>
    <path class="cls-4" d="m79.56,35.98s-.04,0-.07,0c-.27-.04-.47-.29-.43-.56l1.28-9.5c.04-.27.29-.46.56-.43.27.04.47.29.43.56l-1.28,9.5c-.03.25-.25.43-.5.43Z"/>
    <path class="cls-4" d="m80.84,101.33c-.25,0-.46-.18-.5-.43l-1.28-9.5c-.04-.27.16-.53.43-.56.27-.04.52.16.56.43l1.28,9.5c.04.27-.16.53-.43.56-.02,0-.05,0-.07,0Z"/>
    <path class="cls-4" d="m110.75,63.87h-9.59c-.28,0-.5-.22-.5-.5s.22-.5.5-.5h9.59c.28,0,.5.22.5.5s-.22.5-.5.5Z"/>
    <path class="cls-3" d="m46.21,63.37c0-14.25,11.53-25.86,25.75-25.99v51.99c-14.22-.14-25.75-11.74-25.75-25.99Z"/>
  </g>
  <g>
    <path class="cls-3" d="m34.82,117.77v-11.96h4.09c.33,0,.66,0,.98.02s.64.06.95.12.61.15.91.27.58.28.86.48c.4.29.72.64.98,1.06.26.41.46.85.61,1.31.15.46.26.92.32,1.39.06.47.09.91.09,1.3s-.03.8-.08,1.21c-.05.41-.13.81-.24,1.2-.11.39-.26.77-.44,1.13-.18.36-.41.69-.69.99-.28.31-.58.56-.9.75-.33.19-.67.34-1.03.44s-.73.18-1.12.22c-.39.04-.78.06-1.18.06h-4.09Zm1.13-.96h2.71c.51,0,.99-.03,1.44-.09s.91-.21,1.37-.46c.4-.2.72-.47.98-.81.25-.34.46-.72.61-1.12.15-.4.26-.83.32-1.27s.09-.87.09-1.28c0-.43-.03-.87-.08-1.32-.06-.45-.16-.87-.32-1.28-.16-.4-.37-.77-.63-1.11-.27-.34-.61-.62-1.03-.84-.35-.19-.78-.31-1.26-.36-.49-.06-.98-.08-1.48-.08h-2.71v10.03Z"/>
    <path class="cls-3" d="m50.62,112.76c.19-.02.41-.05.67-.1.26-.04.47-.11.64-.18.17-.08.27-.21.31-.39.04-.18.06-.35.06-.51,0-.51-.16-.93-.49-1.25-.33-.33-.88-.49-1.65-.49-.34,0-.66.03-.95.09s-.54.17-.76.32c-.22.15-.39.35-.53.6-.14.25-.23.56-.27.94h-1.01c.03-.51.15-.94.35-1.3s.46-.65.77-.88.68-.39,1.1-.5c.42-.1.86-.16,1.32-.16.43,0,.84.05,1.22.14s.71.24,1,.45c.28.21.5.48.66.82.16.34.24.76.24,1.26v4.68c0,.39.07.63.21.74.14.11.42.08.84-.08v.78c-.08.02-.19.06-.34.1-.15.04-.3.07-.44.07-.16,0-.31-.02-.45-.05-.17-.02-.3-.08-.4-.16-.1-.08-.18-.18-.24-.3-.06-.12-.1-.24-.12-.38-.02-.14-.03-.29-.03-.44-.42.47-.9.82-1.44,1.06s-1.13.36-1.76.36c-.38,0-.74-.05-1.09-.15s-.66-.25-.92-.47c-.27-.21-.48-.47-.63-.77-.16-.3-.23-.67-.23-1.09,0-1.46,1-2.33,3.01-2.59l1.38-.18Zm1.68.5c-.42.18-.85.29-1.28.35-.43.05-.86.1-1.3.13-.76.05-1.36.23-1.79.51-.43.29-.64.72-.64,1.31,0,.27.05.5.16.69s.24.35.41.48c.17.13.37.22.6.28s.46.09.69.09c.4,0,.79-.05,1.16-.15s.71-.25,1-.46c.29-.2.53-.47.71-.78.18-.32.27-.69.27-1.12v-1.35Z"/>
    <path class="cls-3" d="m56.94,117.77h-1v-8.6h1v1.61h.03c.28-.69.63-1.16,1.07-1.44.44-.27,1.02-.41,1.74-.41v1.08c-.57-.01-1.03.08-1.4.27-.36.19-.66.44-.87.76-.22.32-.36.7-.45,1.14-.08.44-.12.89-.12,1.37v4.22Z"/>
    <path class="cls-3" d="m61.36,117.77v-11.96h1v7.44l4.22-4.09h1.36l-3.22,3.11,3.6,5.5h-1.11l-3.22-4.8-1.63,1.54v3.26h-1Z"/>
    <path class="cls-3" d="m69.42,119.27h-.93l3.9-13.77h.93l-3.9,13.77Z"/>
    <path class="cls-3" d="m74.5,117.77v-11.96h1.13v11h6.41v.96h-7.54Z"/>
    <path class="cls-3" d="m83.68,107.29v-1.48h1.1v1.48h-1.1Zm.05,10.48v-8.6h1v8.6h-1Z"/>
    <path class="cls-3" d="m93.92,109.17h1v7.77c0,.58-.06,1.13-.17,1.65-.12.53-.32.99-.62,1.39s-.71.72-1.23.95c-.52.24-1.19.36-2.01.36-.63,0-1.17-.08-1.63-.24-.45-.16-.82-.36-1.11-.61-.29-.24-.51-.51-.66-.81-.15-.29-.23-.57-.24-.82h1.06c.08.32.2.58.37.79s.36.37.59.48c.23.12.48.2.76.24s.56.07.86.07c.68,0,1.22-.12,1.63-.35.41-.23.72-.54.93-.91.21-.38.35-.8.41-1.28.06-.48.09-.96.07-1.46-.32.53-.76.93-1.32,1.2-.56.27-1.14.41-1.75.41-.65,0-1.22-.12-1.7-.37-.48-.25-.88-.58-1.2-1-.32-.42-.55-.9-.71-1.45s-.23-1.13-.23-1.73c0-.63.07-1.22.21-1.78s.37-1.03.69-1.44c.32-.4.72-.72,1.2-.95.49-.23,1.08-.35,1.78-.35.28,0,.56.04.85.12.29.08.57.19.84.33.27.14.52.33.75.55.23.22.41.47.56.75h.03v-1.51Zm0,4.33c0-.52-.06-1-.19-1.45-.13-.45-.31-.84-.56-1.16s-.55-.58-.91-.77c-.37-.19-.78-.28-1.25-.28-.42,0-.81.08-1.16.23-.35.15-.66.37-.93.66s-.47.64-.62,1.05c-.15.42-.22.89-.22,1.44-.02.54.02,1.05.13,1.52.11.47.29.88.53,1.24.24.35.55.63.93.84.38.2.83.31,1.35.31.45,0,.86-.1,1.22-.29s.67-.45.91-.78c.25-.33.44-.71.57-1.15.13-.44.2-.9.2-1.39Z"/>
    <path class="cls-3" d="m97.42,117.77v-11.96h1v4.55c.4-.42.81-.76,1.24-1.03.43-.27.94-.4,1.54-.4.53,0,1.02.09,1.48.27s.84.5,1.15.95c.21.31.34.63.37.95.04.33.06.67.06,1.02v5.63h-1v-5.61c0-.77-.17-1.36-.51-1.74-.34-.39-.91-.58-1.71-.58-.31,0-.59.05-.85.14-.25.09-.48.22-.69.37-.2.16-.38.33-.52.53-.14.2-.25.41-.33.63-.1.28-.16.54-.18.8s-.03.53-.03.83v4.63h-1Z"/>
    <path class="cls-3" d="m109.68,117.81c-.12.02-.28.06-.48.12-.2.06-.42.08-.66.08-.5,0-.88-.12-1.14-.37-.26-.25-.39-.7-.39-1.34v-6.3h-1.21v-.83h1.21v-2.39h1v2.39h1.61v.83h-1.61v5.9c0,.21,0,.39.02.55s.04.28.1.38c.06.1.14.17.26.22.12.04.28.07.49.07.13,0,.27-.01.41-.03s.27-.05.41-.08v.81Z"/>
    <path class="cls-4" d="m55.75,132.72h-1.75v-8.97h2.72l1.63,7.05,1.62-7.05h2.69v8.97h-1.75v-6.06c0-.17,0-.42,0-.73s0-.56,0-.73l-1.7,7.52h-1.82l-1.68-7.52c0,.17,0,.41,0,.73s0,.56,0,.73v6.06Z"/>
    <path class="cls-4" d="m68.38,132.97c-1.28,0-2.26-.35-2.94-1.05-.91-.86-1.36-2.09-1.36-3.7s.45-2.88,1.36-3.7c.68-.7,1.66-1.05,2.94-1.05s2.26.35,2.94,1.05c.9.82,1.36,2.06,1.36,3.7s-.45,2.84-1.36,3.7c-.68.7-1.66,1.05-2.94,1.05Zm1.77-2.41c.43-.55.65-1.33.65-2.34s-.22-1.78-.65-2.33-1.02-.82-1.77-.82-1.33.27-1.78.82-.66,1.33-.66,2.34.22,1.79.66,2.34,1.03.82,1.78.82,1.33-.27,1.77-.82Z"/>
    <path class="cls-4" d="m77.97,132.72h-3.86v-8.97h3.86c.56,0,1.02.07,1.39.19.63.21,1.14.59,1.53,1.14.31.45.53.93.64,1.45s.17,1.01.17,1.48c0,1.19-.24,2.2-.72,3.03-.65,1.12-1.65,1.67-3,1.67Zm1.39-6.68c-.29-.49-.86-.73-1.71-.73h-1.73v5.85h1.73c.88,0,1.5-.44,1.85-1.31.19-.48.29-1.05.29-1.71,0-.91-.14-1.61-.43-2.1Z"/>
    <path class="cls-4" d="m89.34,128.8h-4.36v2.31h4.96v1.61h-6.79v-8.97h6.58v1.59h-4.74v1.9h4.36v1.56Z"/>
  </g>
</svg>