<?xml version="1.0" encoding="UTF-8"?>
<svg id="Layer_1" data-name="Layer 1" xmlns="http://www.w3.org/2000/svg" viewBox="0 0 144 144">
  <defs>
    <style>
      .cls-1 {
        opacity: .55;
      }

      .cls-2 {
        fill: #6376a5;
      }

      .cls-2, .cls-3, .cls-4 {
        stroke-width: 0px;
      }

      .cls-3 {
        fill: #234876;
      }

      .cls-4 {
        fill: orange;
      }
    </style>
  </defs>
  <g>
    <g>
      <path class="cls-4" d="m72.46,37.38c14.22.13,25.75,11.74,25.75,25.99s-11.53,25.86-25.75,26v-51.99Z"/>
      <path class="cls-2" d="m71.96,37.38v51.99c-14.22-.14-25.75-11.74-25.75-26s11.53-25.86,25.75-25.99Z"/>
    </g>
    <path class="cls-4" d="m101.42,88.71c-.13,0-.26-.05-.35-.15l-6.78-6.78c-.2-.2-.2-.51,0-.71s.51-.2.71,0l6.78,6.78c.2.2.2.51,0,.71-.1.1-.23.15-.35.15Z"/>
    <g class="cls-1">
      <path class="cls-3" d="m71.96,24.42h-.12c-21.28.2-38.59,17.68-38.59,38.95s17.31,38.75,38.59,38.95h.12s0-77.91,0-77.91Z"/>
    </g>
    <path class="cls-4" d="m95.43,46.83c-.13,0-.26-.05-.35-.15-.2-.2-.2-.51,0-.71l6.78-6.78c.2-.2.51-.2.71,0s.2.51,0,.71l-6.78,6.78c-.1.1-.23.15-.35.15Z"/>
    <path class="cls-4" d="m79.56,35.98s-.04,0-.07,0c-.27-.04-.47-.29-.43-.56l1.28-9.5c.04-.27.29-.46.56-.43.27.04.47.29.43.56l-1.28,9.5c-.03.25-.25.43-.5.43Z"/>
    <path class="cls-4" d="m80.84,101.33c-.25,0-.46-.18-.5-.43l-1.28-9.5c-.04-.27.16-.53.43-.56.27-.04.52.16.56.43l1.28,9.5c.04.27-.16.53-.43.56-.02,0-.05,0-.07,0Z"/>
    <path class="cls-4" d="m110.75,63.87h-9.59c-.28,0-.5-.22-.5-.5s.22-.5.5-.5h9.59c.28,0,.5.22.5.5s-.22.5-.5.5Z"/>
    <path class="cls-3" d="m46.21,63.37c0-14.25,11.53-25.86,25.75-25.99v51.99c-14.22-.14-25.75-11.74-25.75-25.99Z"/>
  </g>
  <g>
    <path class="cls-3" d="m54.2,112.33v-5.76h1.97c.16,0,.32,0,.47.01s.31.03.46.06.29.07.44.13.28.14.41.23c.19.14.35.31.47.51.12.2.22.41.29.63.07.22.12.45.15.67.03.23.04.44.04.63s-.01.39-.04.58c-.02.2-.06.39-.12.58-.05.19-.12.37-.21.54-.09.17-.2.33-.33.48-.13.15-.28.27-.44.36-.16.09-.32.16-.5.21s-.35.09-.54.1c-.19.02-.38.03-.57.03h-1.97Zm.54-.46h1.3c.25,0,.48-.01.69-.04s.44-.1.66-.22c.19-.1.35-.23.47-.39.12-.17.22-.35.29-.54.07-.19.12-.4.15-.61s.04-.42.04-.62c0-.21-.01-.42-.04-.64-.03-.22-.08-.42-.15-.62-.08-.19-.18-.37-.3-.54-.13-.16-.29-.3-.5-.4-.17-.09-.37-.15-.61-.18-.23-.03-.47-.04-.71-.04h-1.3v4.83Z"/>
    <path class="cls-3" d="m61.81,109.91c.09-.01.2-.03.32-.05.12-.02.23-.05.31-.09.08-.04.13-.1.15-.19.02-.09.03-.17.03-.24,0-.25-.08-.45-.24-.6-.16-.16-.42-.24-.8-.24-.17,0-.32.02-.46.04s-.26.08-.36.15c-.1.07-.19.17-.26.29-.07.12-.11.27-.13.45h-.49c.02-.25.07-.45.17-.63s.22-.31.37-.42.33-.19.53-.24c.2-.05.41-.08.64-.08.21,0,.4.02.59.07s.34.12.48.22c.14.1.24.23.32.4.08.17.12.37.12.61v2.26c0,.19.03.31.1.36.07.05.2.04.4-.04v.38s-.09.03-.16.05c-.07.02-.14.03-.21.03-.07,0-.15,0-.22-.02-.08-.01-.14-.04-.19-.08-.05-.04-.09-.09-.12-.14-.03-.06-.05-.12-.06-.18-.01-.07-.02-.14-.02-.21-.2.22-.43.4-.7.51s-.54.18-.85.18c-.18,0-.36-.02-.52-.07s-.32-.12-.44-.22c-.13-.1-.23-.23-.3-.37-.07-.15-.11-.32-.11-.52,0-.7.48-1.12,1.45-1.25l.66-.09Zm.81.24c-.2.08-.41.14-.62.17-.21.03-.42.05-.62.06-.37.03-.65.11-.86.25-.21.14-.31.35-.31.63,0,.13.03.24.08.33s.12.17.2.23c.08.06.18.11.29.14s.22.04.33.04c.19,0,.38-.02.56-.07s.34-.12.48-.22c.14-.1.25-.22.34-.38.08-.15.13-.33.13-.54v-.65Z"/>
    <path class="cls-3" d="m64.86,112.33h-.48v-4.14h.48v.78h.02c.13-.33.31-.56.52-.69.21-.13.49-.2.84-.2v.52c-.27,0-.5.04-.67.13-.18.09-.32.21-.42.37-.1.15-.18.34-.22.55-.04.21-.06.43-.06.66v2.03Z"/>
    <path class="cls-3" d="m66.98,112.33v-5.76h.48v3.58l2.03-1.97h.66l-1.55,1.5,1.74,2.65h-.54l-1.55-2.31-.78.74v1.57h-.48Z"/>
    <path class="cls-3" d="m70.86,113.05h-.45l1.88-6.63h.45l-1.88,6.63Z"/>
    <path class="cls-3" d="m73.31,112.33v-5.76h.54v5.3h3.09v.46h-3.63Z"/>
    <path class="cls-3" d="m77.74,107.28v-.71h.53v.71h-.53Zm.02,5.05v-4.14h.48v4.14h-.48Z"/>
    <path class="cls-3" d="m82.66,108.19h.48v3.74c0,.28-.03.54-.08.8-.06.25-.16.48-.3.67s-.34.35-.59.46c-.25.11-.57.17-.97.17-.3,0-.57-.04-.78-.12-.22-.08-.4-.17-.54-.29-.14-.12-.24-.25-.32-.39-.07-.14-.11-.27-.12-.4h.51c.04.15.1.28.18.38s.17.18.28.23c.11.06.23.09.36.12s.27.03.42.03c.33,0,.59-.06.78-.17.2-.11.35-.26.45-.44.1-.18.17-.39.2-.62.03-.23.04-.46.04-.7-.15.26-.37.45-.64.58-.27.13-.55.2-.84.2-.31,0-.59-.06-.82-.18-.23-.12-.42-.28-.58-.48-.15-.2-.27-.43-.34-.7s-.11-.54-.11-.83c0-.3.03-.59.1-.86s.18-.5.33-.69c.15-.19.35-.35.58-.46.23-.11.52-.17.86-.17.13,0,.27.02.41.06.14.04.27.09.4.16.13.07.25.16.36.26.11.11.2.23.27.36h.02v-.73Zm0,2.09c0-.25-.03-.48-.09-.7-.06-.22-.15-.4-.27-.56s-.26-.28-.44-.37c-.18-.09-.38-.14-.6-.14-.2,0-.39.04-.56.11-.17.07-.32.18-.45.32s-.23.31-.3.51c-.07.2-.11.43-.11.69-.01.26.01.51.06.73.05.23.14.43.26.6.12.17.27.31.45.4.18.1.4.15.65.15.22,0,.41-.05.59-.14s.32-.22.44-.38c.12-.16.21-.34.28-.55.06-.21.1-.43.1-.67Z"/>
    <path class="cls-3" d="m84.35,112.33v-5.76h.48v2.19c.19-.2.39-.37.6-.5.21-.13.45-.19.74-.19.26,0,.49.04.71.13s.4.24.55.46c.1.15.16.3.18.46.02.16.03.32.03.49v2.71h-.48v-2.7c0-.37-.08-.65-.25-.84-.17-.19-.44-.28-.82-.28-.15,0-.29.02-.41.07-.12.05-.23.11-.33.18-.1.07-.18.16-.25.26-.07.1-.12.2-.16.3-.05.13-.08.26-.09.38s-.02.26-.02.4v2.23h-.48Z"/>
    <path class="cls-3" d="m90.26,112.35c-.06.01-.14.03-.23.06-.1.03-.2.04-.32.04-.24,0-.42-.06-.55-.18-.13-.12-.19-.33-.19-.64v-3.03h-.58v-.4h.58v-1.15h.48v1.15h.78v.4h-.78v2.84c0,.1,0,.19,0,.26s.02.14.05.18c.03.05.07.08.12.1.06.02.13.03.24.03.06,0,.13,0,.2-.02s.13-.02.2-.04v.39Z"/>
    <path class="cls-4" d="m64.28,119.53h-.84v-4.32h1.31l.79,3.4.78-3.4h1.3v4.32h-.84v-2.92c0-.08,0-.2,0-.35s0-.27,0-.35l-.82,3.62h-.88l-.81-3.62c0,.08,0,.2,0,.35s0,.27,0,.35v2.92Z"/>
    <path class="cls-4" d="m70.36,119.65c-.62,0-1.09-.17-1.42-.5-.44-.41-.66-1.01-.66-1.78s.22-1.38.66-1.78c.33-.34.8-.5,1.42-.5s1.09.17,1.42.5c.44.4.65.99.65,1.78s-.22,1.37-.65,1.78c-.33.34-.8.5-1.42.5Zm.85-1.16c.21-.26.31-.64.31-1.12s-.1-.86-.31-1.12-.49-.4-.85-.4-.64.13-.86.4-.32.64-.32,1.12.11.86.32,1.12.5.4.86.4.64-.13.85-.4Z"/>
    <path class="cls-4" d="m74.98,119.53h-1.86v-4.32h1.86c.27,0,.49.04.67.09.3.1.55.28.74.55.15.21.25.45.31.7s.08.49.08.71c0,.57-.12,1.06-.35,1.46-.31.54-.79.81-1.45.81Zm.67-3.22c-.14-.23-.41-.35-.82-.35h-.83v2.82h.83c.43,0,.72-.21.89-.63.09-.23.14-.5.14-.82,0-.44-.07-.78-.21-1.01Z"/>
    <path class="cls-4" d="m80.46,117.64h-2.1v1.11h2.39v.78h-3.27v-4.32h3.17v.76h-2.29v.92h2.1v.75Z"/>
  </g>
</svg>