<?xml version="1.0" encoding="UTF-8"?>
<svg id="elements" xmlns="http://www.w3.org/2000/svg" viewBox="0 0 447.04 393.04">
  <defs>
    <style>
      .cls-1 {
        stroke-width: 0px;
      }
    </style>
  </defs>
  <path class="cls-1" d="m225,202.36c13.51-13.51,27.03-27.03,40.54-40.54,5.79-5.79-3.19-14.79-8.99-8.99-13.51,13.51-27.03,27.03-40.54,40.54-13.51-13.51-27.03-27.03-40.54-40.54-5.8-5.79-14.79,3.2-8.99,8.99,13.52,13.51,27.03,27.03,40.54,40.54-13.51,13.51-27.03,27.03-40.54,40.54-5.79,5.79,3.2,14.79,8.99,8.99,13.51-13.51,27.03-27.03,40.54-40.54,13.51,13.51,27.03,27.03,40.54,40.54,5.79,5.79,14.79-3.2,8.99-8.99-13.51-13.51-27.03-27.03-40.54-40.54Z"/>
</svg>