<?xml version="1.0" encoding="UTF-8"?>
<svg id="elements" xmlns="http://www.w3.org/2000/svg" viewBox="0 0 447.04 393.04">
  <defs>
    <style>
      .cls-1 {
        stroke-width: 0px;
      }
    </style>
  </defs>
  <path class="cls-1" d="m304.06,114.09h-141.38c-8.18,0-8.2,12.71,0,12.71h29.84c.57,24.88,1.13,49.76,1.7,74.65.22,9.76,1.45,21.12-3.19,30.14-5.07,9.86-16.86,12.11-26.93,12.88-8.11.62-8.17,13.34,0,12.71,11.37-.87,23.17-3.16,31.8-11.19,8.7-8.11,10.93-20.24,11.19-31.63.68-29.1-1.04-58.44-1.81-87.56h54.82c-.65,34.16-.44,68.33.8,102.47.47,12.88-1.96,31.52,7.88,41.63,8.07,8.29,21.11,9.91,30.95,4,7.01-4.21.62-15.21-6.42-10.98-4.18,2.51-9.19,2.56-13.32-.19-5.77-3.84-5.38-11.08-5.67-17.28-.62-13.36-1.08-26.73-1.39-40.1-.63-26.51-.63-53.04-.12-79.55h31.27c8.18,0,8.2-12.71,0-12.71Z"/>
</svg>